#tb 0: 32767/982027
0,          0,          0,        1,    55296, 0x6a3202a3
0,          1,          1,        1,    55296, 0x2af202eb
0,          2,          2,        1,    55296, 0xa1a40388
0,          3,          3,        1,    55296, 0x61c90426
0,          4,          4,        1,    55296, 0x17720594
0,          5,          5,        1,    55296, 0x49440805
0,          6,          6,        1,    55296, 0x5b2e0d32
0,          7,          7,        1,    55296, 0x5cf691c3
0,          8,          8,        1,    55296, 0x61a5a4c8
0,          9,          9,        1,    55296, 0x75a22a75
0,         10,         10,        1,    55296, 0xd55099af
0,         11,         11,        1,    55296, 0x48778bb6
0,         12,         12,        1,    55296, 0xe76b7df7
0,         13,         13,        1,    55296, 0x5a049f33
0,         14,         14,        1,    55296, 0xc83d9b90
0,         15,         15,        1,    55296, 0x567877b8
0,         16,         16,        1,    55296, 0x334c7f6e
0,         17,         17,        1,    55296, 0x9317945c
0,         18,         18,        1,    55296, 0xf032831e
0,         19,         19,        1,    55296, 0x7b6c8d2c
0,         20,         20,        1,    55296, 0x37109fd6
0,         21,         21,        1,    55296, 0xe9b0b61b
0,         22,         22,        1,    55296, 0x7385dae8
0,         23,         23,        1,    55296, 0x74a8a9f5
0,         24,         24,        1,    55296, 0xbcd2e218
0,         25,         25,        1,    55296, 0x0aa6c623
0,         26,         26,        1,    55296, 0x2224d6d6
0,         27,         27,        1,    55296, 0x8c8ee4d9
0,         28,         28,        1,    55296, 0x0d4ceccc
0,         29,         29,        1,    55296, 0x623f10c7
0,         30,         30,        1,    55296, 0x13a61f8f
0,         31,         31,        1,    55296, 0x5343fa8d
0,         32,         32,        1,    55296, 0x21fef1b5
0,         33,         33,        1,    55296, 0x380de6b4
0,         34,         34,        1,    55296, 0x04bedfd3
0,         35,         35,        1,    55296, 0x428cf510
0,         36,         36,        1,    55296, 0xbca8c214
0,         37,         37,        1,    55296, 0x947faa34
0,         38,         38,        1,    55296, 0x70769f45
0,         39,         39,        1,    55296, 0xcb9483ad
0,         40,         40,        1,    55296, 0xac4ea82b
0,         41,         41,        1,    55296, 0xa3816977
0,         42,         42,        1,    55296, 0xcfd54ec4
0,         43,         43,        1,    55296, 0x97743f0e
0,         44,         44,        1,    55296, 0x4cb4424d
0,         45,         45,        1,    55296, 0x0b503c11
0,         46,         46,        1,    55296, 0x879f333a
0,         47,         47,        1,    55296, 0x6ff9eb8f
0,         48,         48,        1,    55296, 0x7cd6e5af
0,         49,         49,        1,    55296, 0x44e2c36f
0,         50,         50,        1,    55296, 0x4e8993fb
0,         51,         51,        1,    55296, 0xf0bb9664
0,         52,         52,        1,    55296, 0xde608458
0,         53,         53,        1,    55296, 0xb3017f01
0,         54,         54,        1,    55296, 0x2e096579
0,         55,         55,        1,    55296, 0xd7295790
0,         56,         56,        1,    55296, 0xc40b81cb
0,         57,         57,        1,    55296, 0x53a86e41
0,         58,         58,        1,    55296, 0x74142f89
0,         59,         59,        1,    55296, 0x2a1428ce
0,         60,         60,        1,    55296, 0x5d0c2852
0,         61,         61,        1,    55296, 0x162058a4
0,         62,         62,        1,    55296, 0x4e8c6ce8
0,         63,         63,        1,    55296, 0x1d382af2
0,         64,         64,        1,    55296, 0x35dd2b75
0,         65,         65,        1,    55296, 0x1e4c205f
0,         66,         66,        1,    55296, 0x74a22383
0,         67,         67,        1,    55296, 0x6ddb237d
0,         68,         68,        1,    55296, 0xd290263b
0,         69,         69,        1,    55296, 0xc778249f
0,         70,         70,        1,    55296, 0xbc1046fb
0,         71,         71,        1,    55296, 0xf44d470f
0,         72,         72,        1,    55296, 0x28d85a11
0,         73,         73,        1,    55296, 0xa68953b6
0,         74,         74,        1,    55296, 0x02593ce5
0,         75,         75,        1,    55296, 0x61be53d5
0,         76,         76,        1,    55296, 0x4c503c54
0,         77,         77,        1,    55296, 0x3d3e60f7
0,         78,         78,        1,    55296, 0xec876b9d
0,         79,         79,        1,    55296, 0x5b5f59e4
0,         80,         80,        1,    55296, 0xbd2d5f84
0,         81,         81,        1,    55296, 0xaa7a6410
0,         82,         82,        1,    55296, 0xaa196189
0,         83,         83,        1,    55296, 0x81365cca
0,         84,         84,        1,    55296, 0xa85f6861
0,         85,         85,        1,    55296, 0xcb46562e
0,         86,         86,        1,    55296, 0x1b935862
0,         87,         87,        1,    55296, 0x80a45a60
0,         88,         88,        1,    55296, 0x8e8aabba
0,         89,         89,        1,    55296, 0x38939b53
0,         90,         90,        1,    55296, 0x4f397c22
0,         91,         91,        1,    55296, 0x7d0d8476
0,         92,         92,        1,    55296, 0x943e8044
0,         93,         93,        1,    55296, 0xabc6b323
0,         94,         94,        1,    55296, 0x87dfb605
0,         95,         95,        1,    55296, 0x5ca89202
0,         96,         96,        1,    55296, 0x61bc9b27
0,         97,         97,        1,    55296, 0x1e4baa30
0,         98,         98,        1,    55296, 0xd8a7adb0
0,         99,         99,        1,    55296, 0x0d0aa8fb
0,        100,        100,        1,    55296, 0x1f1ba33c
0,        101,        101,        1,    55296, 0xa000a80b
0,        102,        102,        1,    55296, 0xb49dd332
0,        103,        103,        1,    55296, 0x6b8ac499
0,        104,        104,        1,    55296, 0x9636ed15
0,        105,        105,        1,    55296, 0xa152f03d
0,        106,        106,        1,    55296, 0x47a8cfc7
0,        107,        107,        1,    55296, 0x9f94c82a
0,        108,        108,        1,    55296, 0xe208d626
0,        109,        109,        1,    55296, 0x28cc0616
0,        110,        110,        1,    55296, 0xc545179e
0,        111,        111,        1,    55296, 0xd38e05af
0,        112,        112,        1,    55296, 0x25d6ed99
0,        113,        113,        1,    55296, 0x7a6bf86e
0,        114,        114,        1,    55296, 0xbb3bfbcd
0,        115,        115,        1,    55296, 0x33de2984
0,        116,        116,        1,    55296, 0xd5b10c27
0,        117,        117,        1,    55296, 0x19e31f78
0,        118,        118,        1,    55296, 0xf62f1a4f
0,        119,        119,        1,    55296, 0x3f792203
0,        120,        120,        1,    55296, 0xe4ed6202
0,        121,        121,        1,    55296, 0xee265136
0,        122,        122,        1,    55296, 0x408af73c
0,        123,        123,        1,    55296, 0xc1533ef5
0,        124,        124,        1,    55296, 0xf671f85d
0,        125,        125,        1,    55296, 0xae2670e0
0,        126,        126,        1,    55296, 0xe4390cd0
0,        127,        127,        1,    55296, 0x5cd50784
0,        128,        128,        1,    55296, 0x05880500
0,        129,        129,        1,    55296, 0x6d2d0420
0,        130,        130,        1,    55296, 0xfa780393
0,        131,        131,        1,    55296, 0x2daf0315
0,        132,        132,        1,    55296, 0x982f02b3
